<svg width="26" height="26" viewBox="0 0 26 26" fill="none" xmlns="http://www.w3.org/2000/svg">
<path d="M25.486 9.22289C25.486 13.9691 21.6384 17.8166 16.8922 17.8166C16.3444 17.8166 15.8087 17.7647 15.2893 17.6667L14.1169 18.9858C14.0069 19.1095 13.872 19.2085 13.7211 19.2763C13.5701 19.344 13.4065 19.3791 13.241 19.3791H11.4235V21.3322C11.4235 21.9794 10.8988 22.5041 10.2516 22.5041H8.29846V24.4572C8.29846 25.1044 7.7738 25.6291 7.12659 25.6291H1.65784C1.01062 25.6291 0.485962 25.1044 0.485962 24.4572V20.6457C0.485962 20.3349 0.609448 20.0369 0.829175 19.8171L8.72966 11.9166C8.45022 11.0692 8.29846 10.1638 8.29846 9.22284C8.29846 4.47665 12.146 0.629138 16.8922 0.629089C21.6524 0.629041 25.486 4.46263 25.486 9.22289ZM16.8922 6.87909C16.8922 8.17352 17.9415 9.22284 19.236 9.22284C20.5304 9.22284 21.5797 8.17352 21.5797 6.87909C21.5797 5.58466 20.5304 4.53534 19.236 4.53534C17.9415 4.53534 16.8922 5.58466 16.8922 6.87909Z" fill="#7F265B"/>
</svg>
